<?xml version="1.0" encoding="UTF-8" standalone="no"?>
<!-- Created with Inkscape (http://www.inkscape.org/) -->

<svg
   width="210mm"
   height="297mm"
   viewBox="0 0 210 297"
   version="1.1"
   id="svg1"
   xml:space="preserve"
   inkscape:version="1.3.2 (091e20e, 2023-11-25)"
   sodipodi:docname="elephArt_logo.svg"
   inkscape:export-filename="elephArt_logo.webp"
   inkscape:export-xdpi="96"
   inkscape:export-ydpi="96"
   xmlns:inkscape="http://www.inkscape.org/namespaces/inkscape"
   xmlns:sodipodi="http://sodipodi.sourceforge.net/DTD/sodipodi-0.dtd"
   xmlns="http://www.w3.org/2000/svg"
   xmlns:svg="http://www.w3.org/2000/svg"><sodipodi:namedview
     id="namedview1"
     pagecolor="#ffffff"
     bordercolor="#000000"
     borderopacity="0.25"
     inkscape:showpageshadow="2"
     inkscape:pageopacity="0.0"
     inkscape:pagecheckerboard="0"
     inkscape:deskcolor="#d1d1d1"
     inkscape:document-units="mm"
     inkscape:zoom="3.1230587"
     inkscape:cx="530.8898"
     inkscape:cy="472.9338"
     inkscape:window-width="1392"
     inkscape:window-height="1027"
     inkscape:window-x="260"
     inkscape:window-y="25"
     inkscape:window-maximized="0"
     inkscape:current-layer="layer2" /><defs
     id="defs1" /><g
     inkscape:groupmode="layer"
     id="layer2"
     inkscape:label="Layer 2"><path
       id="path3"
       style="opacity:1;fill:#000000;stroke-width:0.264583"
       d="M 163.89801 89.501514 L 155.44374 90.515922 L 157.81104 108.10038 L 152.85114 110.01706 C 148.05818 112.53171 145.60181 110.66521 143.15715 108.77682 C 141.31162 106.6263 138.42163 102.38615 135.71781 98.519051 C 131.40499 94.415292 126.07863 91.324685 118.4708 90.515922 C 114.74683 90.247803 108.98091 90.502625 101.67545 94.122937 C 93.845126 98.262136 90.140042 105.15388 88.712415 110.01706 C 84.643988 110.80111 81.825918 113.08533 79.243742 115.65289 C 75.765495 120.29019 73.637692 125.03158 74.058529 129.96881 C 74.140076 134.65162 76.98653 138.72 79.69436 142.81919 C 71.377631 147.02806 67.224553 152.33221 64.589856 158.03635 C 63.539528 162.81174 61.323861 165.256 63.350138 176.18459 C 60.566764 177.54304 58.060157 178.34726 55.571802 179.11568 C 51.51449 179.94117 47.906293 180.01846 44.750757 179.34099 C 43.946513 177.98832 43.45146 176.63551 39.452889 175.28284 C 35.318065 174.80391 33.187141 175.75663 31.111279 176.74838 C 32.778569 178.89073 34.948834 180.71848 39.001754 181.36981 C 42.070893 181.29069 43.930775 180.80873 45.201375 180.13009 C 47.706138 181.07367 50.428709 181.94491 56.474072 181.70829 C 57.974051 181.64282 60.391035 181.16974 64.589856 179.90478 C 67.447066 186.31626 72.424017 188.79115 77.32758 191.40227 C 86.066938 193.83855 91.290472 197.53672 111.03147 196.02369 L 116.89312 173.93047 L 102.80251 169.75966 L 118.2455 173.70516 L 114.52583 189.37345 L 136.84488 188.69701 C 140.64406 167.06941 137.22054 154.33131 133.35052 142.14274 C 141.45859 137.7084 150.39588 129.40381 159.38924 120.8381 L 160.17834 127.26355 L 155.78222 127.48886 C 154.41051 127.59179 153.76941 128.79065 152.96431 129.7435 C 152.88537 134.38599 153.8531 133.2701 154.31668 134.92872 L 161.53071 135.37933 L 167.16706 183.39914 L 172.91606 187.56995 L 176.07194 182.15891 L 169.4217 131.65966 L 171.11255 130.53208 C 173.65432 128.66 175.78468 125.82838 177.42483 121.85251 C 178.2669 118.35269 179.39748 117.45217 177.65014 110.91881 C 176.1197 106.47304 170.60595 106.00287 166.15265 105.84625 L 163.89801 89.501514 z M 168.16648 118.3504 C 169.19248 118.35909 169.81309 119.10442 169.98497 120.27483 C 169.97861 123.32728 169.1977 122.89258 168.6326 123.43071 L 167.95616 118.35815 C 168.02815 118.35209 168.09808 118.34982 168.16648 118.3504 z " /><ellipse
       style="display:inline;fill:#ffffff;stroke-width:0.264583"
       id="path2"
       cx="119.65464"
       cy="117.56928"
       rx="2.0853612"
       ry="2.1417224" /></g></svg>
