<svg xmlns="http://www.w3.org/2000/svg" viewBox="0 0 64 80" x="0px" y="0px"><path d="M61.33,11.15L52.85,2.67c-1.13-1.14-3.11-1.14-4.24,0L9.49,41.78c-.39,.39-.39,1.02,0,1.41l.71,.71-2.83,2.83c-.39,.39-.39,1.03,0,1.42l.71,.7-.71,.71c-.61,.62-.92,1.44-.87,2.28l-2.67,2.66c-.01,.02-.02,.03-.03,.05l-2.79,2.78c-.22,.23-.33,.55-.28,.87,.05,.32,.25,.59,.54,.73l5.65,2.83c.14,.08,.3,.11,.45,.11,.26,0,.52-.1,.71-.29l4.08-4.08c.84,.05,1.66-.26,2.29-.87l.7-.71,.7,.71c.2,.19,.45,.29,.71,.29s.51-.1,.71-.29l2.83-2.83,.71,.71c.19,.19,.45,.29,.7,.29,.26,0,.52-.1,.71-.29L61.33,15.39c.57-.56,.88-1.32,.88-2.12s-.31-1.55-.88-2.12ZM7.17,59.65l-3.76-1.88,1.33-1.34,3.77,1.88-1.34,1.34Zm5.87-4.44c-.26,.25-.63,.35-.97,.25-.35-.09-.71,.01-.97,.26l-1.1,1.1-3.77-1.88,2.05-2.04c.19-.2,.29-.45,.29-.71,0-.09-.01-.17-.03-.26-.1-.35,0-.71,.25-.96l.7-.71,4.25,4.25-.7,.7Zm3.52-.7l-.7-.71-5.66-5.66-.71-.7,2.13-2.12,7.06,7.06-2.12,2.13Zm4.95-2.13l-.69-.69q-.01-.01-.01-.02l-8.48-8.48q-.01,0-.02-.01l-.69-.69,2.82-2.83,9.9,9.9-2.83,2.82Zm4.25-4.24l-9.9-9.9L42.2,11.9l9.9,9.9-26.34,26.34Zm27.75-27.76l-9.89-9.89,2.82-2.83,9.9,9.9-2.83,2.82Zm6.41-6.4l-2.16,2.16-9.9-9.9,2.16-2.16c.38-.38,1.04-.38,1.41,0h.01l8.48,8.49c.19,.18,.29,.43,.29,.7s-.1,.52-.29,.71Z"/><text x="0" y="79" fill="#000000" font-size="5px" font-weight="bold" font-family="'Helvetica Neue', Helvetica, Arial-Unicode, Arial, Sans-serif">Created by ic2icon</text><text x="0" y="84" fill="#000000" font-size="5px" font-weight="bold" font-family="'Helvetica Neue', Helvetica, Arial-Unicode, Arial, Sans-serif">from the Noun Project</text></svg>