<?xml version="1.0" standalone="no"?>
<!DOCTYPE svg PUBLIC "-//W3C//DTD SVG 20010904//EN"
 "http://www.w3.org/TR/2001/REC-SVG-20010904/DTD/svg10.dtd">
<svg version="1.0" xmlns="http://www.w3.org/2000/svg"
 width="228.000000pt" height="224.000000pt" viewBox="0 0 228.000000 224.000000"
 preserveAspectRatio="xMidYMid meet">

<g transform="translate(0.000000,224.000000) scale(0.100000,-0.100000)"
fill="#000000" stroke="none">
<path d="M1805 2224 c-46 -23 -1485 -1465 -1485 -1488 0 -11 8 -28 17 -38 16
-18 14 -21 -40 -76 -61 -61 -66 -75 -41 -103 15 -16 14 -20 -10 -52 -14 -19
-26 -44 -26 -57 0 -16 -34 -58 -111 -136 -76 -76 -110 -118 -106 -128 3 -9 61
-43 127 -76 l121 -61 89 86 c49 47 97 85 108 85 10 0 36 11 57 25 34 24 39 25
54 10 28 -24 42 -18 103 42 55 54 58 56 76 40 10 -9 27 -17 38 -17 12 0 287
268 756 737 799 800 772 769 735 839 -23 42 -347 361 -380 374 -37 13 -46 13
-82 -6z m232 -226 c105 -105 163 -170 163 -183 0 -12 -19 -40 -43 -63 l-43
-42 -182 182 -181 183 41 42 c23 24 51 43 62 43 13 0 80 -59 183 -162z m-29
-395 l-53 -53 -182 182 -183 183 52 52 53 53 182 -182 183 -183 -52 -52z
m-283 77 l180 -180 -488 -488 -487 -487 -182 183 -183 182 485 485 c267 267
487 485 490 485 3 0 86 -81 185 -180z m-1030 -1030 l180 -180 -53 -52 -52 -53
-182 182 -183 183 50 50 c27 27 52 50 55 50 3 0 86 -81 185 -180z m-158 -152
c68 -68 123 -128 123 -133 0 -6 -16 -26 -35 -45 l-35 -34 -132 132 -132 132
34 35 c19 19 39 35 44 35 6 0 66 -55 133 -122z m-127 -133 c73 -73 73 -75 55
-95 -10 -11 -30 -20 -45 -20 -15 0 -36 -10 -50 -24 l-23 -25 -70 35 -70 36 42
42 c25 25 41 51 41 66 0 22 25 60 39 60 4 0 40 -34 81 -75z m-182 -188 l63
-33 -24 -23 -25 -22 -63 31 c-35 18 -66 34 -68 36 -7 6 31 44 43 44 6 -1 39
-16 74 -33z"/>
</g>
</svg>
