<?xml version="1.0" standalone="no"?>
<!DOCTYPE svg PUBLIC "-//W3C//DTD SVG 20010904//EN"
 "http://www.w3.org/TR/2001/REC-SVG-20010904/DTD/svg10.dtd">
<svg version="1.0" xmlns="http://www.w3.org/2000/svg"
 width="456.000000pt" height="279.000000pt" viewBox="0 0 456.000000 279.000000"
 preserveAspectRatio="xMidYMid meet">

<g transform="translate(0.000000,279.000000) scale(0.100000,-0.100000)"
fill="#000000" stroke="none">
<path d="M770 1515 l0 -495 55 0 55 0 0 495 0 495 -55 0 -55 0 0 -495z"/>
<path d="M2330 1515 l0 -495 60 0 60 0 0 261 c0 248 1 262 21 290 25 36 68 59
109 59 42 0 66 -15 87 -53 16 -28 18 -61 17 -294 l-1 -263 59 0 60 0 -4 283
c-3 280 -3 282 -29 332 -36 70 -84 97 -166 92 -51 -2 -71 -9 -108 -35 l-45
-32 0 175 0 175 -60 0 -60 0 0 -495z"/>
<path d="M3201 1928 c-24 -78 -284 -884 -289 -896 -3 -10 10 -12 58 -10 l62 3
37 120 36 120 159 0 159 0 36 -122 36 -123 61 0 62 0 -52 163 c-29 89 -97 300
-152 470 l-99 307 -52 0 c-49 0 -52 -1 -62 -32z m124 -343 c32 -104 60 -195
62 -202 4 -10 -23 -13 -121 -13 -69 0 -126 3 -126 6 0 4 23 81 50 173 67 220
72 233 75 229 1 -2 28 -88 60 -193z"/>
<path d="M4200 1805 l0 -85 -55 0 -55 0 0 -45 0 -45 55 0 55 0 0 -242 c0 -134
5 -259 10 -279 20 -71 91 -110 174 -95 36 7 36 7 36 57 0 45 -2 50 -19 44 -11
-3 -31 -3 -45 1 -41 10 -47 53 -44 294 l3 215 53 3 52 3 0 45 0 44 -55 0 -55
0 0 85 0 85 -55 0 -55 0 0 -85z"/>
<path d="M286 1715 c-52 -18 -110 -77 -138 -139 -30 -68 -39 -294 -14 -378 34
-117 110 -177 235 -186 81 -5 135 8 190 48 57 41 60 56 23 93 l-32 31 -20 -22
c-38 -41 -78 -54 -146 -50 -96 6 -139 54 -151 168 l-6 60 198 0 198 0 -6 98
c-3 53 -13 119 -23 146 -21 60 -80 121 -131 135 -52 15 -130 13 -177 -4z m156
-96 c26 -14 55 -82 60 -139 l3 -45 -135 0 -135 0 2 30 c5 66 15 96 47 130 30
31 39 35 85 35 29 0 61 -5 73 -11z"/>
<path d="M1205 1715 c-51 -18 -118 -90 -140 -152 -12 -32 -19 -91 -22 -175 -7
-161 15 -246 77 -308 96 -96 299 -92 392 7 l27 28 -30 33 -29 32 -51 -35 c-44
-30 -59 -35 -109 -35 -100 0 -155 58 -162 170 l-3 55 193 3 192 2 0 70 c0 172
-56 281 -158 310 -51 14 -129 12 -177 -5z m168 -105 c29 -23 45 -65 49 -130
l3 -45 -134 -3 -134 -3 6 55 c10 102 51 145 138 146 32 0 54 -6 72 -20z"/>
<path d="M1862 1709 c-23 -12 -48 -31 -55 -43 -11 -20 -12 -19 -17 14 -5 34
-6 35 -57 38 l-53 3 0 -486 0 -486 58 3 57 3 3 157 3 158 40 -27 c75 -50 185
-42 254 18 61 54 78 114 83 286 4 134 2 161 -17 220 -12 37 -32 81 -46 96 -58
65 -172 86 -253 46z m123 -93 c22 -10 42 -29 57 -58 21 -39 23 -56 23 -188 0
-131 -2 -149 -23 -187 -12 -24 -35 -49 -52 -58 -38 -20 -105 -19 -140 1 -54
33 -60 56 -60 242 0 159 1 171 23 203 39 58 101 74 172 45z"/>
<path d="M3915 1719 c-11 -7 -32 -23 -47 -37 l-28 -26 0 32 0 32 -55 0 -55 0
0 -350 0 -350 55 0 55 0 0 248 c0 220 2 251 18 281 25 46 76 74 125 67 l38 -4
-3 56 -3 57 -40 2 c-22 2 -49 -2 -60 -8z"/>
</g>
</svg>
