<?xml version="1.0" encoding="UTF-8" standalone="no"?>
<!-- Created with Inkscape (http://www.inkscape.org/) -->

<svg
   width="147.45798mm"
   height="106.87507mm"
   viewBox="0 0 147.45798 106.87507"
   version="1.1"
   id="svg1"
   xml:space="preserve"
   xmlns="http://www.w3.org/2000/svg"
   xmlns:svg="http://www.w3.org/2000/svg"><defs
     id="defs1" /><g
     id="layer2"
     transform="translate(-31.111336,-89.501447)"><path
       style="opacity:1;fill:#000000;stroke-width:0.264583"
       d="m 88.712391,110.01689 c 1.427629,-4.86318 5.13273,-11.754628 12.963059,-15.893831 7.30547,-3.620316 13.07163,-3.875231 16.79561,-3.607112 7.60783,0.808764 12.93367,3.899515 17.2465,8.003278 2.70382,3.867105 5.59413,8.107195 7.43967,10.257725 2.44466,1.88839 4.90115,3.7546 9.69411,1.23994 l 4.95978,-1.91628 -2.36717,-17.584663 8.45416,-1.0145 2.25445,16.344723 c 4.45331,0.15662 9.96723,0.62672 11.49767,5.0725 1.74734,6.53337 0.61662,7.43424 -0.22545,10.93406 -1.64015,3.97587 -3.77067,6.80752 -6.31244,8.67961 l -1.69084,1.12722 6.65062,50.49956 -3.15623,5.41066 -5.74883,-4.17072 -5.63611,-48.01967 -7.21422,-0.45089 c -0.46358,-1.65862 -1.43161,-0.54273 -1.35267,-5.18522 0.8051,-0.95285 1.44634,-2.15151 2.81805,-2.25444 l 4.39617,-0.22545 -0.78905,-6.42516 c -8.99337,8.56572 -17.93076,16.87015 -26.03884,21.3045 3.87003,12.18858 7.29358,24.92666 3.49439,46.55428 l -22.319,0.67633 3.71983,-15.66839 -15.44294,-3.94528 14.09028,4.17072 -5.86156,22.09356 c -19.741013,1.51303 -24.964576,-2.18533 -33.703943,-4.62161 -4.903568,-2.61112 -9.8804,-5.08618 -12.737613,-11.49767 -4.198825,1.26496 -6.616019,1.73809 -8.115999,1.80356 -6.045369,0.23662 -8.767458,-0.63453 -11.272223,-1.57811 -1.270602,0.67864 -3.13058,1.16082 -6.199722,1.23994 -4.052924,-0.65133 -6.223264,-2.47926 -7.890555,-4.62161 2.075864,-0.99176 4.206617,-1.94432 8.341445,-1.46539 3.998575,1.35267 4.493697,2.70533 5.297942,4.058 3.155539,0.67747 6.764018,0.60004 10.821334,-0.22545 2.488358,-0.76842 4.994457,-1.57232 7.777834,-2.93077 -2.026279,-10.92861 0.189615,-13.37288 1.239944,-18.14828 2.6347,-5.70414 6.788041,-11.00863 15.104779,-15.2175 -2.707833,-4.09919 -5.554565,-8.16752 -5.636112,-12.85033 -0.420837,-4.93724 1.706972,-9.67842 5.185222,-14.31573 2.582179,-2.56756 5.400237,-4.85206 9.468668,-5.63611 z"
       id="path3" /><ellipse
       style="fill:#ffffff;stroke-width:0.264583"
       id="path2"
       cx="119.65464"
       cy="117.56928"
       rx="2.0853612"
       ry="2.1417224" /><path
       style="opacity:1;fill:#ffffff;stroke-width:0.264583"
       d="m 167.95611,118.35834 0.67634,5.0725 c 0.5651,-0.53813 1.34631,-0.10378 1.35267,-3.15623 -0.18334,-1.24844 -0.87715,-2.01325 -2.02901,-1.91627 z"
       id="path4" /></g></svg>
